<svg width="36" height="36" viewBox="0 0 36 36" fill="none" xmlns="http://www.w3.org/2000/svg">
<circle cx="18" cy="18" r="18" fill="white"/>
<path d="M23.6 18C23.6 19.4852 23.01 20.9096 21.9598 21.9598C20.9096 23.01 19.4852 23.6 18 23.6C16.5148 23.6 15.0904 23.01 14.0402 21.9598C12.99 20.9096 12.4 19.4852 12.4 18C12.4 16.5148 12.99 15.0904 14.0402 14.0402C15.0904 12.99 16.5148 12.4 18 12.4C18.532 12.4 19.05 12.477 19.54 12.617L20.639 11.518C19.827 11.182 18.938 11 18 11C17.0807 11 16.1705 11.1811 15.3212 11.5328C14.4719 11.8846 13.7003 12.4002 13.0503 13.0503C11.7375 14.363 11 16.1435 11 18C11 19.8565 11.7375 21.637 13.0503 22.9497C13.7003 23.5998 14.4719 24.1154 15.3212 24.4672C16.1705 24.8189 17.0807 25 18 25C19.8565 25 21.637 24.2625 22.9497 22.9497C24.2625 21.637 25 19.8565 25 18H23.6ZM15.137 16.656L14.15 17.65L17.3 20.8L24.3 13.8L23.313 12.806L17.3 18.819L15.137 16.656Z" fill="#2196F3"/>
</svg>
